<svg xmlns="http://www.w3.org/2000/svg" xmlns:xlink="http://www.w3.org/1999/xlink" width="500" zoomAndPan="magnify" viewBox="0 0 375 374.999991" height="500" preserveAspectRatio="xMidYMid meet" version="1.0"><defs><g/></defs><rect x="-37.5" width="450" fill="#ffffff" y="-37.499999" height="449.999989" fill-opacity="1"/><rect x="-37.5" width="450" fill="#f8fafc" y="-37.499999" height="449.999989" fill-opacity="1"/><path stroke-linecap="butt" transform="matrix(1.117075, 0, 0, 1.117075, 37.500002, 12.494376)" fill="none" stroke-linejoin="miter" d="M 25.390664 83.639321 L 25.390664 179.844803 L 39.927091 185.2964 L 39.927091 187.999469 L 5.451595 187.999469 L 5.451595 185.2964 L 19.984526 179.844803 L 19.984526 66.403322 L 9.084828 63.654794 L 9.084828 60.951725 L 31.772425 60.951725 C 38.066764 60.951725 43.056777 62.252555 46.752953 64.850718 C 50.445632 67.452379 53.620776 71.291926 56.278386 76.372856 L 95.852297 152.062288 L 126.163038 76.372856 C 128.201705 71.054139 130.978208 67.155146 134.492547 64.675876 C 138.006887 62.193108 143.399037 60.951725 150.669 60.951725 L 169.723364 60.951725 L 169.723364 63.654794 L 158.820169 66.403322 L 158.820169 182.547872 L 169.723364 185.2964 L 169.723364 187.999469 L 117.962913 187.999469 L 117.962913 185.2964 L 128.866107 182.547872 L 128.866107 83.639321 L 86.235945 189.817834 L 80.784348 189.817834 Z M 25.390664 83.639321 " stroke="#ffffff" stroke-width="13.613325" stroke-opacity="1" stroke-miterlimit="4"/><g fill="#f48b38" fill-opacity="1"><g transform="translate(37.500002, 222.504499)"><g><path d="M 28.390625 -116.59375 L 28.390625 -9.125 L 44.609375 -3.046875 L 44.609375 0 L 6.078125 0 L 6.078125 -3.046875 L 22.296875 -9.125 L 22.296875 -135.859375 L 10.140625 -138.890625 L 10.140625 -141.9375 L 35.484375 -141.9375 C 42.515625 -141.9375 48.085938 -140.484375 52.203125 -137.578125 C 56.328125 -134.671875 59.878906 -130.378906 62.859375 -124.703125 L 107.0625 -40.140625 L 140.921875 -124.703125 C 143.222656 -130.648438 146.332031 -135.007812 150.25 -137.78125 C 154.164062 -140.550781 160.179688 -141.9375 168.296875 -141.9375 L 189.578125 -141.9375 L 189.578125 -138.890625 L 177.421875 -135.859375 L 177.421875 -6.078125 L 189.578125 -3.046875 L 189.578125 0 L 131.796875 0 L 131.796875 -3.046875 L 143.96875 -6.078125 L 143.96875 -116.59375 L 96.3125 2.03125 L 90.234375 2.03125 Z M 28.390625 -116.59375 "/></g></g></g><path stroke-linecap="butt" transform="matrix(1.117075, 0, 0, 1.117075, 188.280256, 78.768504)" fill="none" stroke-linejoin="miter" d="M 9.08572 185.295782 L 19.985417 182.55075 L 19.985417 66.402704 L 9.08572 63.654176 L 9.08572 60.951107 L 57.163982 60.951107 C 77.756963 60.951107 92.587126 64.070301 101.657968 70.301697 C 110.725314 76.53659 115.260735 85.222779 115.260735 96.360263 C 115.260735 103.833042 113.267527 109.903583 109.277616 114.571885 C 105.291201 119.240186 100.150824 122.726551 93.856484 125.030979 C 87.180987 127.569696 80.089365 128.898501 72.585114 129.017394 L 72.585114 129.905595 C 77.075076 130.139884 81.019529 130.804287 84.418472 131.898802 C 92.866874 134.556412 98.612207 139.343607 101.657968 146.25689 L 117.963804 182.55075 L 127.048634 185.295782 L 127.048634 187.998851 L 101.657968 187.998851 C 91.730396 187.998851 84.463931 182.858474 79.855076 172.577719 L 61.730875 131.720463 L 49.897517 131.720463 L 49.897517 182.55075 L 62.615579 185.295782 L 62.615579 187.998851 L 9.08572 187.998851 Z M 57.163982 127.202526 C 65.643856 127.202526 72.305365 124.541419 77.152007 119.226199 C 81.995151 113.876011 84.418472 106.256363 84.418472 96.360263 C 84.418472 86.432691 81.995151 78.809546 77.152007 73.494326 C 72.305365 68.144138 65.643856 65.47254 57.163982 65.47254 L 49.897517 65.47254 L 49.897517 127.202526 Z M 57.163982 127.202526 " stroke="#ffffff" stroke-width="13.613325" stroke-opacity="1" stroke-miterlimit="4"/><g fill="#f48b38" fill-opacity="1"><g transform="translate(188.280256, 288.778627)"><g><path d="M 10.140625 -3.046875 L 22.296875 -6.078125 L 22.296875 -135.859375 L 10.140625 -138.890625 L 10.140625 -141.9375 L 63.875 -141.9375 C 86.851562 -141.9375 103.410156 -138.453125 113.546875 -131.484375 C 123.679688 -124.523438 128.75 -114.828125 128.75 -102.390625 C 128.75 -94.015625 126.519531 -87.222656 122.0625 -82.015625 C 117.601562 -76.816406 111.859375 -72.929688 104.828125 -70.359375 C 97.390625 -67.523438 89.484375 -66.039062 81.109375 -65.90625 L 81.109375 -64.890625 C 86.109375 -64.617188 90.5 -63.875 94.28125 -62.65625 C 103.75 -59.675781 110.171875 -54.335938 113.546875 -46.640625 L 131.796875 -6.078125 L 141.9375 -3.046875 L 141.9375 0 L 113.546875 0 C 102.460938 0 94.351562 -5.742188 89.21875 -17.234375 L 68.9375 -62.859375 L 55.765625 -62.859375 L 55.765625 -6.078125 L 69.953125 -3.046875 L 69.953125 0 L 10.140625 0 Z M 63.875 -67.921875 C 73.332031 -67.921875 80.765625 -70.894531 86.171875 -76.84375 C 91.578125 -82.789062 94.28125 -91.304688 94.28125 -102.390625 C 94.28125 -113.484375 91.578125 -122 86.171875 -127.9375 C 80.765625 -133.882812 73.332031 -136.859375 63.875 -136.859375 L 55.765625 -136.859375 L 55.765625 -67.921875 Z M 63.875 -67.921875 "/></g></g></g></svg>